<svg id="visual" viewBox="0 0 900 2000" width="900" height="2000" xmlns="http://www.w3.org/2000/svg"
    xmlns:xlink="http://www.w3.org/1999/xlink" version="1.1">
    <rect x="0" y="0" width="900" height="2000" fill="#171723"></rect>

    <g transform="translate(900, 0)">
        <path
            d="M0 486.7C-52.5 457.6 -105 428.5 -170.3 411.1C-235.6 393.7 -313.7 388 -344.2 344.2C-374.6 300.3 -357.4 218.3 -373.2 154.6C-389.1 90.9 -437.9 45.4 -486.7 0L0 0Z"
            fill="#0b283e"></path>
        <path
            d="M0 365.1C-39.4 343.2 -78.7 321.4 -127.7 308.3C-176.7 295.3 -235.3 291 -258.1 258.1C-281 225.3 -268.1 163.7 -279.9 116C-291.8 68.2 -328.4 34.1 -365.1 0L0 0Z"
            fill="#154a72"></path>
        <path
            d="M0 243.4C-26.2 228.8 -52.5 214.3 -85.1 205.6C-117.8 196.9 -156.9 194 -172.1 172.1C-187.3 150.2 -178.7 109.2 -186.6 77.3C-194.5 45.4 -219 22.7 -243.4 0L0 0Z"
            fill="#1f6296"></path>
        <path
            d="M0 121.7C-13.1 114.4 -26.2 107.1 -42.6 102.8C-58.9 98.4 -78.4 97 -86 86C-93.7 75.1 -89.4 54.6 -93.3 38.7C-97.3 22.7 -109.5 11.4 -121.7 0L0 0Z"
            fill="#2984c9"></path>
    </g>
    <g transform="translate(0, 600)">
        <path
            d="M0 -486.7C42 -430.8 84.1 -374.8 149.2 -360.3C214.4 -345.9 302.7 -372.9 344.2 -344.2C385.7 -315.4 380.4 -230.8 396.3 -164.2C412.3 -97.5 449.5 -48.8 486.7 0L0 0Z"
            fill="#0b283e"></path>
        <path
            d="M0 -365.1C31.5 -323.1 63.1 -281.1 111.9 -270.2C160.8 -259.4 227 -279.7 258.1 -258.1C289.3 -236.6 285.3 -173.1 297.3 -123.1C309.2 -73.1 337.1 -36.6 365.1 0L0 0Z"
            fill="#154a72"></path>
        <path
            d="M0 -243.4C21 -215.4 42 -187.4 74.6 -180.2C107.2 -172.9 151.3 -186.5 172.1 -172.1C192.8 -157.7 190.2 -115.4 198.2 -82.1C206.2 -48.8 224.8 -24.4 243.4 0L0 0Z"
            fill="#1f6296"></path>
        <path
            d="M0 -121.7C10.5 -107.7 21 -93.7 37.3 -90.1C53.6 -86.5 75.7 -93.2 86 -86C96.4 -78.9 95.1 -57.7 99.1 -41C103.1 -24.4 112.4 -12.2 121.7 0L0 0Z"
            fill="#2984c9"></path>
    </g>
    <g transform="translate(0, 600) rotate(90)">
        <path
            d="M0 -486.7C42 -430.8 84.1 -374.8 149.2 -360.3C214.4 -345.9 302.7 -372.9 344.2 -344.2C385.7 -315.4 380.4 -230.8 396.3 -164.2C412.3 -97.5 449.5 -48.8 486.7 0L0 0Z"
            fill="#0b283e"></path>
        <path
            d="M0 -365.1C31.5 -323.1 63.1 -281.1 111.9 -270.2C160.8 -259.4 227 -279.7 258.1 -258.1C289.3 -236.6 285.3 -173.1 297.3 -123.1C309.2 -73.1 337.1 -36.6 365.1 0L0 0Z"
            fill="#154a72"></path>
        <path
            d="M0 -243.4C21 -215.4 42 -187.4 74.6 -180.2C107.2 -172.9 151.3 -186.5 172.1 -172.1C192.8 -157.7 190.2 -115.4 198.2 -82.1C206.2 -48.8 224.8 -24.4 243.4 0L0 0Z"
            fill="#1f6296"></path>
        <path
            d="M0 -121.7C10.5 -107.7 21 -93.7 37.3 -90.1C53.6 -86.5 75.7 -93.2 86 -86C96.4 -78.9 95.1 -57.7 99.1 -41C103.1 -24.4 112.4 -12.2 121.7 0L0 0Z"
            fill="#2984c9"></path>
    </g>
    <g transform="translate(900, 1400) rotate(90)">
        <path
            d="M0 486.7C-52.5 457.6 -105 428.5 -170.3 411.1C-235.6 393.7 -313.7 388 -344.2 344.2C-374.6 300.3 -357.4 218.3 -373.2 154.6C-389.1 90.9 -437.9 45.4 -486.7 0L0 0Z"
            fill="#0b283e"></path>
        <path
            d="M0 365.1C-39.4 343.2 -78.7 321.4 -127.7 308.3C-176.7 295.3 -235.3 291 -258.1 258.1C-281 225.3 -268.1 163.7 -279.9 116C-291.8 68.2 -328.4 34.1 -365.1 0L0 0Z"
            fill="#154a72"></path>
        <path
            d="M0 243.4C-26.2 228.8 -52.5 214.3 -85.1 205.6C-117.8 196.9 -156.9 194 -172.1 172.1C-187.3 150.2 -178.7 109.2 -186.6 77.3C-194.5 45.4 -219 22.7 -243.4 0L0 0Z"
            fill="#1f6296"></path>
        <path
            d="M0 121.7C-13.1 114.4 -26.2 107.1 -42.6 102.8C-58.9 98.4 -78.4 97 -86 86C-93.7 75.1 -89.4 54.6 -93.3 38.7C-97.3 22.7 -109.5 11.4 -121.7 0L0 0Z"
            fill="#2984c9"></path>
    </g>
    <g transform="translate(900, 1400) rotate(0)">
        <path
            d="M0 486.7C-52.5 457.6 -105 428.5 -170.3 411.1C-235.6 393.7 -313.7 388 -344.2 344.2C-374.6 300.3 -357.4 218.3 -373.2 154.6C-389.1 90.9 -437.9 45.4 -486.7 0L0 0Z"
            fill="#0b283e"></path>
        <path
            d="M0 365.1C-39.4 343.2 -78.7 321.4 -127.7 308.3C-176.7 295.3 -235.3 291 -258.1 258.1C-281 225.3 -268.1 163.7 -279.9 116C-291.8 68.2 -328.4 34.1 -365.1 0L0 0Z"
            fill="#154a72"></path>
        <path
            d="M0 243.4C-26.2 228.8 -52.5 214.3 -85.1 205.6C-117.8 196.9 -156.9 194 -172.1 172.1C-187.3 150.2 -178.7 109.2 -186.6 77.3C-194.5 45.4 -219 22.7 -243.4 0L0 0Z"
            fill="#1f6296"></path>
        <path
            d="M0 121.7C-13.1 114.4 -26.2 107.1 -42.6 102.8C-58.9 98.4 -78.4 97 -86 86C-93.7 75.1 -89.4 54.6 -93.3 38.7C-97.3 22.7 -109.5 11.4 -121.7 0L0 0Z"
            fill="#2984c9"></path>
    </g>
</svg>